# xmcd CD database file
# Copyright (C) 1997 Ti Kan
# 
# Track frame offsets:
#     180
#     16736
#     45994
#     66064
#     79372
#     101872
#     137450
#     152519
#     170273
#     188938
#     204667
#     224071
# 
# Disc length: 3173 seconds
# 
# Revision: 1
# Processed by: cddbd v1.4b41PL1 Copyright (c) Steve Scherf et al.
# Submitted via: DiscPlay 4.0.4
# 
DISCID=a10c630c
DTITLE=Marva Wright - I Still Haven't Found What I'm Looking For...
DYEAR=1900
DGENRE=
TTITLE0=Worried Dream
TTITLE1=(The Battered Woman's Song) I'm Not Coming Back
TTITLE2=I Still Haven't Found What I'm Looking For
TTITLE3=One Night Stand
TTITLE4=Someone Else is Stepping In
TTITLE5=I Love You More Than You'll Ever Know
TTITLE6=Groove Me
TTITLE7=Cry Like A Man
TTITLE8=Easy Money
TTITLE9=Bad Mouths and Gossip
TTITLE10=Bring It On Home To Me
TTITLE11=A Change Is Gonna Come
EXTD=
EXTT0=
EXTT1=
EXTT2=
EXTT3=
EXTT4=
EXTT5=
EXTT6=
EXTT7=
EXTT8=
EXTT9=
EXTT10=
EXTT11=
PLAYORDER=
